<svg width="40" height="41" viewBox="0 0 40 41" fill="none" xmlns="http://www.w3.org/2000/svg">
<path d="M19.9998 1.51074C9.39581 1.51074 0.799805 10.1067 0.799805 20.7107C0.799805 31.3147 9.39581 39.9107 19.9998 39.9107C30.6038 39.9107 39.1998 31.3147 39.1998 20.7107C39.1998 10.1067 30.6038 1.51074 19.9998 1.51074ZM15.2998 28.6687H11.4118V16.1567H15.2998V28.6687ZM13.3318 14.6207C12.1038 14.6207 11.3098 13.7507 11.3098 12.6747C11.3098 11.5767 12.1278 10.7327 13.3818 10.7327C14.6358 10.7327 15.4038 11.5767 15.4278 12.6747C15.4278 13.7507 14.6358 14.6207 13.3318 14.6207ZM29.4998 28.6687H25.6118V21.7347C25.6118 20.1207 25.0478 19.0247 23.6418 19.0247C22.5678 19.0247 21.9298 19.7667 21.6478 20.4807C21.5438 20.7347 21.5178 21.0947 21.5178 21.4527V28.6667H17.6278V20.1467C17.6278 18.5847 17.5778 17.2787 17.5258 16.1547H20.9038L21.0818 17.8927H21.1598C21.6718 17.0767 22.9258 15.8727 25.0238 15.8727C27.5818 15.8727 29.4998 17.5867 29.4998 21.2707V28.6687Z" fill="#403E3E"/>
</svg>
