<svg width="43" height="42" viewBox="0 0 43 42" fill="none" xmlns="http://www.w3.org/2000/svg">
<path d="M12.4854 18.8825C15.0054 23.835 19.0654 27.8775 24.0179 30.415L27.8679 26.565C28.3404 26.0925 29.0404 25.935 29.6529 26.145C31.6129 26.7925 33.7304 27.1425 35.9004 27.1425C36.8629 27.1425 37.6504 27.93 37.6504 28.8925V35C37.6504 35.9625 36.8629 36.75 35.9004 36.75C19.4679 36.75 6.15039 23.4325 6.15039 7C6.15039 6.0375 6.93789 5.25 7.90039 5.25H14.0254C14.9879 5.25 15.7754 6.0375 15.7754 7C15.7754 9.1875 16.1254 11.2875 16.7729 13.2475C16.9654 13.86 16.8254 14.5425 16.3354 15.0325L12.4854 18.8825Z" fill="#403E3E"/>
</svg>
