<svg width="928" height="181" viewBox="0 0 928 181" fill="none" xmlns="http://www.w3.org/2000/svg">
<path d="M65.3921 8.81249C67.8594 5.90413 69.0931 4.44996 70.5974 3.4051C71.9303 2.47926 73.4141 1.79224 74.9824 1.37474C76.7524 0.903564 78.6594 0.903564 82.4733 0.903564H904.849C912.69 0.903564 916.61 0.903564 919.605 2.42947C922.239 3.7717 924.381 5.91343 925.723 8.5477C927.249 11.5425 927.249 15.4628 927.249 23.3036V158.504C927.249 166.344 927.249 170.265 925.723 173.259C924.381 175.894 922.239 178.035 919.605 179.378C916.61 180.904 912.69 180.904 904.849 180.904H82.4733C78.6593 180.904 76.7524 180.904 74.9824 180.432C73.4141 180.015 71.9303 179.328 70.5974 178.402C69.0931 177.357 67.8594 175.903 65.3921 172.995L8.04274 105.395C3.67565 100.247 1.49211 97.6732 0.659077 94.7916C-0.0752168 92.2516 -0.0752168 89.5555 0.659077 87.0155C1.49211 84.134 3.67565 81.5601 8.04273 76.4125L65.3921 8.81249Z" fill="#DAD9F1"/>
</svg>
