<svg width="40" height="41" viewBox="0 0 40 41" fill="none" xmlns="http://www.w3.org/2000/svg">
<path d="M21.713 4.046C22.9292 4.04133 24.1454 4.05355 25.3613 4.08266L25.6847 4.09433C26.058 4.10766 26.4263 4.12433 26.8713 4.14433C28.6447 4.22766 29.8547 4.50766 30.9163 4.91933C32.0163 5.34266 32.943 5.916 33.8697 6.84266C34.717 7.67534 35.3727 8.68257 35.7913 9.79433C36.203 10.856 36.483 12.0677 36.5663 13.841C36.5863 14.2843 36.603 14.6543 36.6163 15.0277L36.6263 15.351C36.6559 16.5663 36.6687 17.782 36.6647 18.9977L36.6663 20.241V22.4243C36.6704 23.6406 36.6577 24.8568 36.628 26.0727L36.618 26.396C36.6047 26.7693 36.588 27.1377 36.568 27.5827C36.4847 29.356 36.2013 30.566 35.7913 31.6277C35.3741 32.7406 34.7182 33.7487 33.8697 34.581C33.0363 35.4282 32.0285 36.0839 30.9163 36.5027C29.8547 36.9143 28.6447 37.1943 26.8713 37.2777C26.4263 37.2977 26.058 37.3143 25.6847 37.3277L25.3613 37.3377C24.1455 37.3673 22.9292 37.3801 21.713 37.376L20.4697 37.3777H18.288C17.0718 37.3818 15.8555 37.369 14.6397 37.3393L14.3163 37.3293C13.9207 37.315 13.5251 37.2983 13.1297 37.2793C11.3563 37.196 10.1463 36.9127 9.08299 36.5027C7.9708 36.0849 6.96339 35.429 6.13133 34.581C5.28307 33.7481 4.6267 32.7403 4.20799 31.6277C3.79633 30.566 3.51633 29.356 3.43299 27.5827C3.41443 27.1872 3.39776 26.7916 3.38299 26.396L3.37466 26.0727C3.34393 24.8568 3.33004 23.6406 3.33299 22.4243V18.9977C3.32834 17.782 3.34056 16.5663 3.36966 15.351L3.38133 15.0277C3.39466 14.6543 3.41133 14.2843 3.43133 13.841C3.51466 12.066 3.79466 10.8577 4.20633 9.79433C4.62528 8.68203 5.28293 7.67507 6.13299 6.84433C6.96448 5.99558 7.97126 5.33862 9.08299 4.91933C10.1463 4.50766 11.3547 4.22766 13.1297 4.14433L14.3163 4.09433L14.6397 4.086C15.855 4.05528 17.0706 4.04139 18.2863 4.04433L21.713 4.046ZM19.9997 12.3793C18.8955 12.3637 17.7993 12.5677 16.7746 12.9794C15.75 13.3912 14.8174 14.0025 14.0311 14.7778C13.2447 15.553 12.6203 16.4769 12.1941 17.4956C11.768 18.5143 11.5485 19.6076 11.5485 20.7118C11.5485 21.8161 11.768 22.9094 12.1941 23.9281C12.6203 24.9468 13.2447 25.8706 14.0311 26.6459C14.8174 27.4212 15.75 28.0325 16.7746 28.4442C17.7993 28.856 18.8955 29.0599 19.9997 29.0443C22.2098 29.0443 24.3294 28.1664 25.8922 26.6036C27.455 25.0408 28.333 22.9211 28.333 20.711C28.333 18.5009 27.455 16.3812 25.8922 14.8184C24.3294 13.2556 22.2098 12.3793 19.9997 12.3793ZM19.9997 15.7127C20.6638 15.7004 21.3238 15.8207 21.941 16.0663C22.5582 16.312 23.1202 16.6782 23.5943 17.1436C24.0684 17.6089 24.445 18.1641 24.7021 18.7766C24.9592 19.3891 25.0917 20.0467 25.0918 20.711C25.0919 21.3753 24.9596 22.0329 24.7027 22.6455C24.4458 23.2581 24.0694 23.8134 23.5955 24.2789C23.1216 24.7444 22.5596 25.1108 21.9425 25.3567C21.3254 25.6026 20.6655 25.723 20.0013 25.711C18.6752 25.711 17.4035 25.1842 16.4658 24.2465C15.5281 23.3088 15.0013 22.0371 15.0013 20.711C15.0013 19.3849 15.5281 18.1131 16.4658 17.1755C17.4035 16.2378 18.6752 15.711 20.0013 15.711L19.9997 15.7127ZM28.7497 9.87933C28.212 9.90085 27.7035 10.1296 27.3307 10.5176C26.9579 10.9056 26.7496 11.4229 26.7496 11.961C26.7496 12.4991 26.9579 13.0163 27.3307 13.4044C27.7035 13.7924 28.212 14.0211 28.7497 14.0427C29.3022 14.0427 29.8321 13.8232 30.2228 13.4325C30.6135 13.0418 30.833 12.5119 30.833 11.9593C30.833 11.4068 30.6135 10.8769 30.2228 10.4862C29.8321 10.0955 29.3022 9.876 28.7497 9.876V9.87933Z" fill="#403E3E"/>
</svg>
