<svg width="40" height="41" viewBox="0 0 40 41" fill="none" xmlns="http://www.w3.org/2000/svg">
<path d="M20.0017 4.04395C29.2066 4.04395 36.6683 11.5056 36.6683 20.7106C36.6683 29.9156 29.2066 37.3773 20.0017 37.3773C17.0563 37.382 14.1627 36.6026 11.6183 35.1189L3.34165 37.3773L5.59498 29.0973C4.11014 26.5521 3.33006 23.6573 3.33498 20.7106C3.33498 11.5056 10.7967 4.04395 20.0017 4.04395ZM14.3217 12.8773L13.9883 12.8906C13.7725 12.9038 13.5616 12.9604 13.3683 13.0573C13.1875 13.1597 13.0225 13.2877 12.8783 13.4373C12.6783 13.6256 12.565 13.7889 12.4433 13.9473C11.8269 14.7488 11.4949 15.7328 11.5 16.7439C11.5033 17.5606 11.7167 18.3556 12.05 19.0989C12.7317 20.6023 13.8533 22.1939 15.3333 23.6689C15.69 24.0239 16.04 24.3806 16.4167 24.7123C18.2556 26.3314 20.4471 27.499 22.8167 28.1223L23.7633 28.2673C24.0717 28.2839 24.38 28.2606 24.69 28.2456C25.1754 28.2206 25.6493 28.0891 26.0783 27.8606C26.2966 27.7482 26.5096 27.6258 26.7167 27.4939C26.7167 27.4939 26.7883 27.4473 26.925 27.3439C27.15 27.1773 27.2883 27.0589 27.475 26.8639C27.6133 26.7206 27.7333 26.5523 27.825 26.3606C27.955 26.0889 28.085 25.5706 28.1383 25.1389C28.1783 24.8089 28.1666 24.6289 28.1616 24.5173C28.155 24.3389 28.0067 24.1539 27.845 24.0756L26.875 23.6406C26.875 23.6406 25.425 23.0089 24.5383 22.6056C24.4455 22.5651 24.3461 22.5419 24.245 22.5373C24.131 22.5256 24.0157 22.5384 23.9071 22.5749C23.7984 22.6114 23.6988 22.6708 23.615 22.7489C23.6066 22.7456 23.495 22.8406 22.29 24.3006C22.2208 24.3935 22.1256 24.4638 22.0163 24.5024C21.9071 24.541 21.7888 24.5461 21.6766 24.5173C21.5681 24.4882 21.4617 24.4514 21.3583 24.4073C21.1516 24.3206 21.08 24.2873 20.9383 24.2273C19.9818 23.8099 19.0961 23.2459 18.3133 22.5556C18.1033 22.3723 17.9083 22.1723 17.7083 21.9789C17.0526 21.351 16.4812 20.6406 16.0083 19.8656L15.91 19.7073C15.8394 19.6009 15.7823 19.4861 15.74 19.3656C15.6767 19.1206 15.8417 18.9239 15.8417 18.9239C15.8417 18.9239 16.2467 18.4806 16.435 18.2406C16.6183 18.0073 16.7733 17.7806 16.8733 17.6189C17.07 17.3023 17.1317 16.9773 17.0283 16.7256C16.5617 15.5856 16.0783 14.4506 15.5817 13.3239C15.4833 13.1006 15.1917 12.9406 14.9267 12.9089C14.8367 12.8989 14.7466 12.8889 14.6566 12.8823C14.4328 12.8712 14.2085 12.8734 13.985 12.8889L14.32 12.8756L14.3217 12.8773Z" fill="#403E3E"/>
</svg>
