<svg width="31" height="31" viewBox="0 0 31 31" fill="none" xmlns="http://www.w3.org/2000/svg">
<path fill-rule="evenodd" clip-rule="evenodd" d="M28 15.7109C28 22.6147 22.4037 28.2109 15.5 28.2109C8.59625 28.2109 3 22.6147 3 15.7109C3 8.80719 8.59625 3.21094 15.5 3.21094C22.4037 3.21094 28 8.80719 28 15.7109ZM11.0875 19.4234C10.9954 19.5093 10.9215 19.6128 10.8703 19.7278C10.819 19.8428 10.7915 19.9669 10.7893 20.0928C10.787 20.2187 10.8102 20.3437 10.8573 20.4604C10.9045 20.5772 10.9747 20.6832 11.0637 20.7722C11.1527 20.8613 11.2588 20.9314 11.3755 20.9786C11.4922 21.0257 11.6173 21.0489 11.7432 21.0467C11.869 21.0445 11.9932 21.0169 12.1082 20.9657C12.2232 20.9144 12.3267 20.8405 12.4125 20.7484L15.5 17.6609L18.5875 20.7484C18.6733 20.8405 18.7768 20.9144 18.8918 20.9657C19.0068 21.0169 19.131 21.0445 19.2568 21.0467C19.3827 21.0489 19.5078 21.0257 19.6245 20.9786C19.7412 20.9314 19.8473 20.8613 19.9363 20.7722C20.0253 20.6832 20.0955 20.5772 20.1427 20.4604C20.1898 20.3437 20.213 20.2187 20.2107 20.0928C20.2085 19.9669 20.181 19.8428 20.1297 19.7278C20.0785 19.6128 20.0046 19.5093 19.9125 19.4234L16.1625 15.6734C15.9867 15.4979 15.7484 15.3993 15.5 15.3993C15.2516 15.3993 15.0133 15.4979 14.8375 15.6734L11.0875 19.4234ZM11.0875 15.7484C10.9119 15.5727 10.8133 15.3344 10.8133 15.0859C10.8133 14.8375 10.9119 14.5992 11.0875 14.4234L14.8375 10.6734C15.0133 10.4979 15.2516 10.3993 15.5 10.3993C15.7484 10.3993 15.9867 10.4979 16.1625 10.6734L19.9125 14.4234C20.0046 14.5093 20.0785 14.6128 20.1297 14.7278C20.181 14.8428 20.2085 14.9669 20.2107 15.0928C20.213 15.2187 20.1898 15.3437 20.1427 15.4604C20.0955 15.5772 20.0253 15.6832 19.9363 15.7722C19.8473 15.8613 19.7412 15.9314 19.6245 15.9786C19.5078 16.0257 19.3827 16.0489 19.2568 16.0467C19.131 16.0445 19.0068 16.0169 18.8918 15.9657C18.7768 15.9144 18.6733 15.8405 18.5875 15.7484L15.5 12.6609L12.4125 15.7484C12.2367 15.924 11.9984 16.0226 11.75 16.0226C11.5016 16.0226 11.2633 15.924 11.0875 15.7484Z" fill="#6B6969"/>
</svg>
